<svg xmlns="http://www.w3.org/2000/svg" width="320" height="339" fill="none">
  <path fill="#805333" d="M144.84 333.27h-38.08v-82.21h38.08v82.2Z"/>
  <path fill="#33907C" d="M126 122.1s100 106 126 114c0 0-13 51.85-72.5 12.93 0 0 2.36 39.13-13.64 43.13 0 0-23.46 0-39.86-28.06v-142ZM126 122.1s-100 106-126 114c0 0 13 51.85 72.5 12.93 0 0-2.5 33.07 13.5 37.07 0 0 14 2 40-22v-142Z"/>
  <path fill="#14A085" d="M124.68 66.52c-6.4 8.3-59.65 86.84-105.68 104.34 0 0 14 42 73 8 0 0 9 37 34 48m-1.32-160.34c6.54 8.2 61.07 85.84 107.38 102.58 0 0-13.3 42.23-72.86 9.2 0 0-8.38 37.15-33.2 48.56"/>
  <path fill="#26B99A" d="M125.8.64s-.4 7.65-1.12 16.99c-1.49 19.01-12.23 51.53-78.88 86.35 0 0 12.17 31.95 52.74 13.98 0 0 7.87 32.4 27.26 32.17m0-149.5s.4 7.66 1.13 17c1.48 19.01 12.22 51.53 78.87 86.35 0 0-12.17 31.95-52.74 13.98 0 0-7.86 32.4-27.26 32.17"/>
  <path fill="#F0C419" d="M126 0c3.03 0 10.67 24.15 13.12 25.94 2.46 1.78 27.79 1.58 28.73 4.46.93 2.89-19.68 17.61-20.62 20.5-.93 2.88 7.09 26.91 4.63 28.7-2.45 1.78-22.83-13.27-25.86-13.27-3.03 0-23.4 15.05-25.86 13.27-2.46-1.79 5.56-25.82 4.63-28.7-.94-2.89-21.55-17.61-20.62-20.5.94-2.88 26.27-2.68 28.73-4.46C115.33 24.15 122.97 0 126 0ZM126 162.28a12.15 12.15 0 1 0 0-24.3 12.15 12.15 0 0 0 0 24.3ZM84.65 249.25a12.15 12.15 0 1 1-24.3 0 12.15 12.15 0 0 1 24.3 0Zm82.3 0a12.15 12.15 0 1 0 24.3 0 12.15 12.15 0 0 0-24.3 0Z"/>
  <path fill="#ECF0F1" d="M84.9 162.28a6.2 6.2 0 1 1-12.4 0 6.2 6.2 0 0 1 12.4 0Zm81.8 0a6.2 6.2 0 1 0 12.4 0 6.2 6.2 0 0 0-12.4 0Z"/>
  <path fill="#F0C419" d="M191.25 315.34H46.51v23.18h144.74v-23.18Z"/>
  <path fill="#955BA5" d="M110.57 315.34H98.1v23.18h12.47v-23.18Z"/>
  <path fill="#E64C3C" d="M46.23 257.84H10.84a5.67 5.67 0 0 0-5.66 5.67v69.34a5.67 5.67 0 0 0 5.66 5.67h35.4a5.67 5.67 0 0 0 5.66-5.67V263.5a5.67 5.67 0 0 0-5.67-5.66Z"/>
  <path fill="#F0C419" d="M34.78 257.84H22.3v80.68h12.48v-80.68Z"/>
  <path fill="#F0C419" d="M51.9 298.81v-12.47H5.18v12.47H51.9Z"/>
  <path fill="#E64C3C" d="M311.16 224.55h-87.09a8 8 0 0 0-8 8v97.9a8 8 0 0 0 8 8h87.1a8 8 0 0 0 8-8v-97.9a8 8 0 0 0-8-8Z"/>
  <path fill="#F0C419" d="M273.86 224.55h-12.48v113.97h12.48V224.55Z"/>
  <path fill="#F0C419" d="M319.16 287.74v-12.48H216.08v12.48h103.08Z"/>
  <path fill="#955BA5" d="M199.11 289.83h-54.04c-1.47 0-2.66 1.3-2.66 2.89v42.91c0 1.6 1.19 2.89 2.66 2.89h54.04c1.47 0 2.67-1.3 2.67-2.89v-42.91c0-1.6-1.2-2.9-2.67-2.9Z"/>
  <path fill="#F0C419" d="M178.33 289.83h-12.47v48.69h12.47v-48.7Z"/>
  <path fill="#F0C419" fill-rule="evenodd" d="M289.12 188.53a21.5 21.5 0 0 0-21.5 21.5v23.5h20.5a22.5 22.5 0 0 0 22.5-22.5v-1a21.5 21.5 0 0 0-21.5-21.5Zm0 11a11.5 11.5 0 0 0-11.5 11.5v11.5h11.5a11.5 11.5 0 0 0 0-23ZM246.12 188.53a21.5 21.5 0 0 1 21.5 21.5v23.5h-20.5a22.5 22.5 0 0 1-22.5-22.5v-1a21.5 21.5 0 0 1 21.5-21.5Zm0 11a11.5 11.5 0 0 1 11.5 11.5v11.5h-11.5a11.5 11.5 0 0 1 0-23Z" clip-rule="evenodd"/>
</svg>
